<svg width="108" height="108" viewBox="0 0 108 108" fill="none" xmlns="http://www.w3.org/2000/svg">
<mask id="mask0" mask-type="alpha" maskUnits="userSpaceOnUse" x="0" y="0" width="108" height="108">
<rect width="108" height="108" fill="#BFBFBF"/>
</mask>
<g mask="url(#mask0)">
<g filter="url(#filter0_diii)">
<rect x="29" y="10" width="40.6978" height="49.967" rx="6" fill="url(#paint0_linear)"/>
</g>
<rect x="35.812" y="23.6289" width="27.2547" height="4.54245" rx="2.27123" fill="#FFD9D6"/>
<rect x="35.8115" y="34.9807" width="11.3561" height="4.54245" rx="2.0384" fill="#FFD9D6"/>
<g filter="url(#filter1_ddiii)">
<path d="M78.9995 49.3896C78.9995 56.5568 73.2396 62.3674 66.1349 62.3674C59.0302 62.3674 53.2703 56.5568 53.2703 49.3896C53.2703 42.2219 59.0302 36.4119 66.1349 36.4119C73.2396 36.4119 78.9995 42.2219 78.9995 49.3896Z" fill="url(#paint1_linear)"/>
</g>
<path d="M65.3003 44.6746H67.6583V42.5866H65.3003V44.6746ZM65.3903 56.1226H67.5683V46.2586H65.3903V56.1226Z" fill="#FFF9F9"/>
<path d="M29.496 94H31.8V86.272H41.352V94H43.68V76.528H41.352V84.136H31.8V76.528H29.496V94ZM48.3564 78.424H50.8764V76.072H48.3564V78.424ZM48.5004 94H50.7324V81.016H48.5004V94ZM55.2459 94H57.5019V86.608C57.5019 84.28 59.0379 82.792 61.1019 82.792C63.2139 82.792 64.4379 84.184 64.4379 86.488V94H66.6939V85.864C66.6939 82.816 64.9179 80.728 61.8219 80.728C59.6619 80.728 58.3659 81.856 57.5019 83.2V81.016H55.2459V94ZM75.2233 94.216C76.2073 94.216 76.9513 94.024 77.6473 93.64V91.744C76.9993 92.056 76.4473 92.2 75.7753 92.2C74.5513 92.2 73.7593 91.648 73.7593 90.208V82.984H77.6953V81.016H73.7593V77.2H71.5273V81.016H69.7753V82.984H71.5273V90.52C71.5273 93.208 73.1113 94.216 75.2233 94.216Z" fill="#FFFDFD"/>
</g>
<defs>
<filter id="filter0_diii" x="27" y="9" width="50.6978" height="59.967" filterUnits="userSpaceOnUse" color-interpolation-filters="sRGB">
<feFlood flood-opacity="0" result="BackgroundImageFix"/>
<feColorMatrix in="SourceAlpha" type="matrix" values="0 0 0 0 0 0 0 0 0 0 0 0 0 0 0 0 0 0 127 0"/>
<feOffset dx="3" dy="4"/>
<feGaussianBlur stdDeviation="2.5"/>
<feColorMatrix type="matrix" values="0 0 0 0 0.215686 0 0 0 0 0 0 0 0 0 0.345098 0 0 0 0.2 0"/>
<feBlend mode="normal" in2="BackgroundImageFix" result="effect1_dropShadow"/>
<feBlend mode="normal" in="SourceGraphic" in2="effect1_dropShadow" result="shape"/>
<feColorMatrix in="SourceAlpha" type="matrix" values="0 0 0 0 0 0 0 0 0 0 0 0 0 0 0 0 0 0 127 0" result="hardAlpha"/>
<feOffset dx="2" dy="4"/>
<feGaussianBlur stdDeviation="4"/>
<feComposite in2="hardAlpha" operator="arithmetic" k2="-1" k3="1"/>
<feColorMatrix type="matrix" values="0 0 0 0 1 0 0 0 0 0.5775 0 0 0 0 0.1875 0 0 0 0.4 0"/>
<feBlend mode="normal" in2="shape" result="effect2_innerShadow"/>
<feColorMatrix in="SourceAlpha" type="matrix" values="0 0 0 0 0 0 0 0 0 0 0 0 0 0 0 0 0 0 127 0" result="hardAlpha"/>
<feOffset dx="1" dy="2"/>
<feGaussianBlur stdDeviation="2"/>
<feComposite in2="hardAlpha" operator="arithmetic" k2="-1" k3="1"/>
<feColorMatrix type="matrix" values="0 0 0 0 1 0 0 0 0 0.950167 0 0 0 0 0.904167 0 0 0 0.4 0"/>
<feBlend mode="normal" in2="effect2_innerShadow" result="effect3_innerShadow"/>
<feColorMatrix in="SourceAlpha" type="matrix" values="0 0 0 0 0 0 0 0 0 0 0 0 0 0 0 0 0 0 127 0" result="hardAlpha"/>
<feOffset dy="1"/>
<feGaussianBlur stdDeviation="1"/>
<feComposite in2="hardAlpha" operator="arithmetic" k2="-1" k3="1"/>
<feColorMatrix type="matrix" values="0 0 0 0 1 0 0 0 0 1 0 0 0 0 1 0 0 0 0.3 0"/>
<feBlend mode="normal" in2="effect3_innerShadow" result="effect4_innerShadow"/>
</filter>
<filter id="filter1_ddiii" x="47.2703" y="30.4119" width="36.7292" height="37.9555" filterUnits="userSpaceOnUse" color-interpolation-filters="sRGB">
<feFlood flood-opacity="0" result="BackgroundImageFix"/>
<feColorMatrix in="SourceAlpha" type="matrix" values="0 0 0 0 0 0 0 0 0 0 0 0 0 0 0 0 0 0 127 0"/>
<feOffset dx="1" dy="2"/>
<feGaussianBlur stdDeviation="2"/>
<feColorMatrix type="matrix" values="0 0 0 0 0.215686 0 0 0 0 0 0 0 0 0 0.345098 0 0 0 0.2 0"/>
<feBlend mode="normal" in2="BackgroundImageFix" result="effect1_dropShadow"/>
<feColorMatrix in="SourceAlpha" type="matrix" values="0 0 0 0 0 0 0 0 0 0 0 0 0 0 0 0 0 0 127 0"/>
<feOffset dx="-2" dy="-2"/>
<feGaussianBlur stdDeviation="2"/>
<feColorMatrix type="matrix" values="0 0 0 0 1 0 0 0 0 0.882353 0 0 0 0 0.952941 0 0 0 0.2 0"/>
<feBlend mode="normal" in2="effect1_dropShadow" result="effect2_dropShadow"/>
<feBlend mode="normal" in="SourceGraphic" in2="effect2_dropShadow" result="shape"/>
<feColorMatrix in="SourceAlpha" type="matrix" values="0 0 0 0 0 0 0 0 0 0 0 0 0 0 0 0 0 0 127 0" result="hardAlpha"/>
<feOffset dx="2" dy="4"/>
<feGaussianBlur stdDeviation="4"/>
<feComposite in2="hardAlpha" operator="arithmetic" k2="-1" k3="1"/>
<feColorMatrix type="matrix" values="0 0 0 0 0 0 0 0 0 0.668247 0 0 0 0 1 0 0 0 0.4 0"/>
<feBlend mode="normal" in2="shape" result="effect3_innerShadow"/>
<feColorMatrix in="SourceAlpha" type="matrix" values="0 0 0 0 0 0 0 0 0 0 0 0 0 0 0 0 0 0 127 0" result="hardAlpha"/>
<feOffset dx="1" dy="2"/>
<feGaussianBlur stdDeviation="2"/>
<feComposite in2="hardAlpha" operator="arithmetic" k2="-1" k3="1"/>
<feColorMatrix type="matrix" values="0 0 0 0 0.904167 0 0 0 0 0.977 0 0 0 0 1 0 0 0 0.4 0"/>
<feBlend mode="normal" in2="effect3_innerShadow" result="effect4_innerShadow"/>
<feColorMatrix in="SourceAlpha" type="matrix" values="0 0 0 0 0 0 0 0 0 0 0 0 0 0 0 0 0 0 127 0" result="hardAlpha"/>
<feOffset dy="1"/>
<feGaussianBlur stdDeviation="0.5"/>
<feComposite in2="hardAlpha" operator="arithmetic" k2="-1" k3="1"/>
<feColorMatrix type="matrix" values="0 0 0 0 1 0 0 0 0 1 0 0 0 0 1 0 0 0 0.5 0"/>
<feBlend mode="normal" in2="effect4_innerShadow" result="effect5_innerShadow"/>
</filter>
<linearGradient id="paint0_linear" x1="49.3489" y1="59.967" x2="49.3489" y2="10" gradientUnits="userSpaceOnUse">
<stop stop-color="#FF4689"/>
<stop offset="1" stop-color="#FF9231"/>
</linearGradient>
<linearGradient id="paint1_linear" x1="54.6996" y1="62.3398" x2="74.5441" y2="36.5796" gradientUnits="userSpaceOnUse">
<stop stop-color="#0A72D1"/>
<stop offset="1" stop-color="#00CEFF"/>
</linearGradient>
</defs>
</svg>
