<?xml version="1.0" encoding="utf-8"?>
<!-- Generator: Adobe Illustrator 25.2.0, SVG Export Plug-In . SVG Version: 6.00 Build 0)  -->
<svg version="1.1" id="Layer_1" xmlns="http://www.w3.org/2000/svg" xmlns:xlink="http://www.w3.org/1999/xlink" x="0px" y="0px"
	 viewBox="0 0 183 435" style="enable-background:new 0 0 183 435;" xml:space="preserve">
<style type="text/css">
	.st0{fill:#97E2FE;}
	.st1{fill:#8ACBFE;}
	.st2{fill:#98E4FE;}
	.st3{fill:#88C8FE;}
	.st4{fill:#88C9FE;}
	.st5{fill:#9AE7FE;}
	.st6{fill:#9CEAFE;}
	.st7{fill:#9CE9FE;}
	.st8{fill:#87C6FE;}
	.st9{fill:#86C6FE;}
	.st10{fill:#9DECFE;}
	.st11{fill:#9EEDFE;}
	.st12{fill:#9FEFFE;}
	.st13{fill:#84C1FE;}
	.st14{fill:#85C4FE;}
	.st15{fill:#82BEFE;}
	.st16{fill:#85C3FE;}
	.st17{fill:#83C0FE;}
	.st18{fill:#81BEFE;}
	.st19{fill:#A0F0FE;}
	.st20{fill:#A1F2FE;}
	.st21{fill:#7FBBFE;}
	.st22{fill:#7FBAFD;}
	.st23{fill:#7CB5FB;}
	.st24{fill:#A3F5FE;}
	.st25{fill:#A4F8FD;}
	.st26{fill:#A2F5FE;}
	.st27{fill:#A4F7FC;}
	.st28{fill:#95DEFE;}
	.st29{fill:#8CCFFE;}
	.st30{fill:#91D7FE;}
	.st31{fill:#93DBFE;}
	.st32{fill:#8FD4FE;}
	.st33{fill:#8DD1FE;}
</style>
<g>
	<path class="st0" d="M64.18,231.05c0-8.31,0.01-16.62,0.01-24.94c1.53-3.28,1.33-6.8,1.31-10.27
		c-0.24-61.11-0.05-122.21-0.07-183.32c0-3.11-0.63-6.36,1.25-9.24c2.56-0.86,5.11-0.9,7.66,0.03c1.89,2.87,1.27,6.13,1.27,9.23
		c0.03,90.03,0.03,180.06,0.03,270.09c0,47.43,0.01,94.86-0.02,142.29c0,2.95,0.51,6.02-1.16,8.78c-2.51,1.25-5.08,0.85-7.66,0.3
		c-2.05-2.82-1.37-6.08-1.37-9.18c0.02-62.02-0.16-124.05,0.07-186.07C65.51,236.13,65.9,233.4,64.18,231.05z"/>
	<path class="st1" d="M127.09,143.17c-1.52,12.85-3.29,25.68-4.52,38.55c-2.66,27.88-2.05,55.75,0.86,83.59
		c0.72,6.93,1.62,13.83,2.43,20.75c-0.59,46.34-0.11,92.68-0.29,139.02c-0.01,2.95,0.54,6.02-1.23,8.74
		c-2.56,0.96-5.12,0.92-7.69,0.03c-1.9-2.87-1.27-6.12-1.28-9.23c-0.04-87.04-0.03-174.09-0.03-261.13
		c0-50.43-0.01-100.86,0.02-151.29c0-2.95-0.51-6.02,1.18-8.77c2.86-1.3,5.76-0.84,8.68-0.25c1.86,2.5,1.35,5.42,1.35,8.2
		c0.04,36.12,0.07,72.24-0.01,108.36C126.54,127.56,127.29,135.35,127.09,143.17z"/>
	<path class="st2" d="M67.01,3.23c0,63.89-0.03,127.78,0.08,191.67c0.01,3.87-0.87,7.55-1.18,11.34c-0.18,2.21-1.1-0.14-1.71-0.12
		c-0.1-3.87-0.19-7.74-0.29-11.62c-0.96-2.73,0.19-5.65-0.73-8.38c-1.66-13.65-3.32-27.31-4.97-40.96
		c0.48-7.57,1.16-15.13,1.18-22.71c0.09-36.92,0.03-73.85,0.06-110.77c0-2.79-0.46-5.69,1.13-8.28C62.69,2.26,64.84,2.5,67.01,3.23z
		"/>
	<path class="st2" d="M64.18,231.05c0.62,0.03,1.18-2.35,1.8-0.18c0.73,2.53,1.07,5.13,1.07,7.83C66.99,303.76,67,368.81,67,433.86
		c-2.14,0.89-4.28,0.96-6.4-0.08c-1.65-2.57-1.16-5.47-1.17-8.26c-0.03-38.91-0.03-77.82-0.02-116.73c0-5.29-0.33-10.56-1.28-15.77
		c1.68-14,3.35-27.99,5.03-41.99c0.92-2.76-0.22-5.7,0.74-8.45C64,238.74,64.09,234.89,64.18,231.05z"/>
	<path class="st3" d="M127.09,143.17c-1.77-4.83-2.06-9.9-2.07-14.93c-0.08-41.66-0.05-83.32-0.05-124.99
		c2.82-0.79,5.62-0.99,8.41,0.14c1.42,2.07,1.18,4.45,1.19,6.76c0.03,29.91,0.03,59.83,0.01,89.74c0,3.45-0.28,6.9-0.58,10.33
		C131.7,121.2,129.4,132.18,127.09,143.17z"/>
	<path class="st4" d="M123.97,433.86c0-45.24,0.01-90.48,0-135.72c0-4.13,0.42-8.18,1.89-12.08c2.05,10.94,4.11,21.88,6.16,32.82
		c0.23,4.27,0.57,8.54,0.57,12.83c0,31.24,0.01,62.47-0.02,93.71c0,2.79,0.45,5.68-1.13,8.27
		C128.98,434.91,126.48,434.7,123.97,433.86z"/>
	<path class="st5" d="M58.14,293.02c0.76-0.2,1.7-0.74,1.84,0.63c0.38,3.78,0.98,7.57,0.99,11.35c0.07,42.95,0.04,85.91,0.04,128.86
		c-2.44,0.9-4.89,0.87-7.34,0c-1.72-2.55-1.21-5.46-1.21-8.24c-0.04-29.61-0.01-59.22-0.04-88.83c0-3.63,0.26-7.32-1.17-10.8
		C53.54,315,55.84,304.01,58.14,293.02z"/>
	<path class="st5" d="M61.01,3.23c0,40.07-0.04,80.14,0.04,120.21c0.01,7.14-1.66,14.16-1.07,21.32c0.24,2.84-1.05,0.81-1.77,0.4
		c-2-10-4.01-19.99-6.01-29.99c1.52-3.46,1.21-7.15,1.22-10.77c0.03-30.91,0.01-61.82,0.04-92.73c0-2.79-0.47-5.68,1.13-8.27
		C56.7,2.27,58.85,2.5,61.01,3.23z"/>
	<path class="st6" d="M51.24,325.99c0.81-0.33,1.44-0.56,1.87,0.64c0.79,2.24,0.92,4.52,0.92,6.86
		c-0.03,33.46-0.02,66.92-0.02,100.38c-2.79,0.96-5.57,0.88-8.35-0.03c-1.63-2.38-1.22-5.11-1.22-7.73
		c0.02-23.73-0.15-47.46,0.07-71.18c0.01-0.99,0.06-2-0.39-2.93C46.5,343.33,48.87,334.66,51.24,325.99z"/>
	<path class="st7" d="M55.01,3.22c0,35,0.01,70.01-0.03,105.01c0,2.61,0.79,5.7-2.79,6.93c-2.01-7.66-4.02-15.33-6.03-22.99
		c1.57-2.93,1.26-6.14,1.26-9.27c0.03-23.93,0-47.85,0.04-71.78c0-2.62-0.41-5.35,1.15-7.76C50.73,2.3,52.86,2.49,55.01,3.22z"/>
	<path class="st8" d="M130.97,433.86c0-33.39,0.01-66.78,0-100.16c0-4.96-0.23-9.94,1.05-14.81c2.04,7.91,4.08,15.82,6.12,23.74
		c0.98,27.58,0.21,55.18,0.42,82.77c0.02,2.79,0.44,5.68-1.11,8.29C135.33,434.93,133.16,434.7,130.97,433.86z"/>
	<path class="st9" d="M134,110.22c-0.86-2.71-1.06-5.48-1.06-8.32c0.05-32.88,0.03-65.76,0.03-98.64c2.17-0.77,4.33-1,6.45,0.18
		c1.2,1.76,1.14,3.79,1.14,5.77c-0.04,26.05,0.21,52.09-0.17,78.14c0,0.31-0.25,0.61-0.38,0.91C138,95.57,136,102.89,134,110.22z"/>
	<path class="st10" d="M49.02,3.21c0,27.89,0.03,55.78-0.07,83.67c-0.01,1.99,1.43,5.28-2.78,5.28c-2-6.34-4-12.69-6-19.03
		c0.59-20.68,0.09-41.36,0.28-62.04c0.02-2.61-0.4-5.33,1.16-7.73C44.06,2.3,46.53,2.5,49.02,3.21z"/>
	<path class="st11" d="M44.12,352c2.99,0.75,1.84,3.21,1.84,4.96c0.07,25.64,0.05,51.28,0.05,76.92c-2.45,0.88-4.9,0.88-7.35-0.02
		c-1.55-2.21-1.21-4.77-1.21-7.22c0.02-17.4-0.14-34.8,0.07-52.19c0.01-0.83,0.01-1.66-0.28-2.45
		C39.54,365.33,41.83,358.66,44.12,352z"/>
	<path class="st12" d="M42.02,3.21c0,20.98-0.01,41.96,0,62.94c0,2.5,0.2,5.04-1.85,6.98c-2.77-7.3-5.54-14.59-8.31-21.89
		c1.01-5.09,0.52-10.23,0.57-15.35c0.08-8.62-0.01-17.25,0.04-25.87c0.01-2.3-0.26-4.68,1.2-6.73C36.45,2.34,39.23,2.45,42.02,3.21z
		"/>
	<path class="st13" d="M144.11,361.72c1.96,5.4,3.92,10.8,5.88,16.2c1.02,3.24,0.6,6.56,0.59,9.85c-0.04,12.95,0.02,25.9-0.04,38.84
		c-0.01,2.46,0.33,5.02-1.23,7.23c-2.53,0.94-5.07,0.83-7.62,0.08c-1.45-1.86-1.3-4.08-1.3-6.22c-0.04-18.96-0.08-37.93,0.03-56.89
		C140.43,367.38,140.18,363.65,144.11,361.72z"/>
	<path class="st14" d="M144.11,361.72c-1.73,2.76-2.2,5.74-2.19,8.99c0.1,21.05,0.05,42.1,0.04,63.15c-1.67,0.89-3.33,0.89-5,0
		c0-28.17,0.01-56.33,0-84.5c0-2.33-0.1-4.65,1.18-6.74C140.13,348.98,142.12,355.35,144.11,361.72z"/>
	<path class="st15" d="M148.96,433.86c0-13.07,0.02-26.13,0-39.2c-0.01-5.6-0.16-11.21,1.03-16.74c3,7,5.99,14,8.99,21.01
		c1.14,10.73,0.46,21.49,0.35,32.23c-0.01,1-0.39,1.95-1.05,2.74C155.16,434.73,152.06,434.79,148.96,433.86z"/>
	<path class="st16" d="M140,88.25c-1.24-4.87-1.04-9.84-1.04-14.8c0.01-23.4,0-46.8,0-70.2c1.86-0.73,3.69-0.97,5.48,0.22
		c1.09,1.61,1.1,3.46,1.1,5.28c-0.02,20.44,0.19,40.87-0.09,61.31c-0.01,0.83,0,1.66-0.37,2.44C143.8,77.88,142.13,83.14,140,88.25z
		"/>
	<path class="st17" d="M145.08,72.5c-2.13-9.54-0.92-19.21-1.06-28.81c-0.2-13.48-0.05-26.96-0.06-40.44
		c2.13-0.82,4.25-0.88,6.37,0.06c1.61,2.39,1.13,5.12,1.19,7.74c0.35,14.09-0.75,28.2,0.8,42.27
		C149.91,59.71,147.5,66.11,145.08,72.5z"/>
	<path class="st18" d="M152.32,53.32c-2.31-2.12-2.36-4.93-2.36-7.75c0-14.11,0-28.21,0-42.32c2.77-0.86,5.55-0.84,8.32,0.01
		c1.1,1.38,1.22,3.04,1.21,4.68c-0.09,9.85,0.49,19.71-0.39,29.55C156.84,42.76,154.58,48.04,152.32,53.32z"/>
	<path class="st19" d="M37.25,371.99c2.88,0.88,1.71,3.3,1.72,5.05c0.08,18.95,0.05,37.89,0.05,56.84
		c-2.12,0.89-4.23,0.87-6.34-0.01c-1.55-2.22-1.18-4.77-1.2-7.23c-0.09-11.28,0.06-22.55-0.08-33.83c-0.02-1.66,0.04-3.31-0.54-4.9
		C32.99,382.6,35.12,377.3,37.25,371.99z"/>
	<path class="st20" d="M34.03,3.2c0,14.15,0.01,28.31-0.01,42.46c0,2.12,0.49,4.46-2.15,5.58c-2.35-5.32-4.69-10.65-7.04-15.97
		c0.96-8.43,0.59-16.89,0.69-25.35c0.03-2.29-0.29-4.68,1.22-6.72C29.17,2.45,31.6,2.44,34.03,3.2z"/>
	<path class="st21" d="M159.09,37.48c-1.51-2.43-1.12-5.14-1.13-7.78c-0.02-8.82-0.01-17.64-0.01-26.46c3.7-1.12,7.5-0.3,11.25-0.5
		c2.17-0.12,2.7,1.49,3.06,3.18c0.51,2.46,0.05,4.92-0.03,7.38C166.65,20.72,164,29.71,159.09,37.48z"/>
	<path class="st22" d="M157.95,433.87c0-8.89,0.06-17.79-0.02-26.68c-0.03-2.82,0.2-5.57,1.05-8.26
		c3.97,7.43,7.95,14.85,11.92,22.28c0.1,0.66-0.01-0.17,0.06,0.5C172.38,435.74,171.81,435.28,157.95,433.87z"/>
	<path class="st20" d="M30.85,387.91c2.64,1.1,2.16,3.45,2.16,5.56c0.01,13.47,0.01,26.94,0.01,40.41
		c-2.09,0.92-4.18,0.79-6.28,0.06c-1.6-2.19-1.16-4.75-1.24-7.2c-0.26-8.59,0.45-17.19-0.39-25.77
		C27.02,396.62,28.94,392.26,30.85,387.91z"/>
	<path class="st23" d="M27.03,433.88c2,0,4,0,6,0c2,0,4,0,6,0c2.33,0,4.66,0,7,0c2.67,0,5.33,0,8-0.01c2.33,0,4.66,0,7,0
		c2,0,4,0,6,0c2.33,0,4.66,0,6.99,0c2.09-1.66,4.55-1.34,6.96-1.34c2.67-0.08,5.34-0.09,8.01,0c2.95-0.08,5.89-0.1,8.84,0.01
		c2.34-0.04,4.68-0.09,7.02,0.01c1.76-0.06,3.52-0.07,5.28,0c2.38-0.02,4.81-0.32,6.87,1.32c2.33,0,4.67,0,7,0c2.33,0,4.66,0,7,0
		c2,0,4,0,6,0c1.67,0,3.33,0,5,0c2.33,0,4.66,0,6.99,0c3,0,6,0,8.99,0c3.65-0.08,8,1.05,10.76-0.56c3-1.74,0.71-6.44,1.31-9.78
		c0.14-0.8,0.58-1.54,0.88-2.31c3.88,4.21,6.49,9.49,12.19,13.62c-2.88,0-4.62,0-6.37,0c-56.33,0.03-112.66,0.06-168.99,0.08
		c-1.49,0-2.99-0.03-4.48-0.07c-0.16,0-0.31-0.1-0.47-0.16c0.27-0.25,0.55-0.5,0.82-0.75c5.5-2.6,11.32-1.33,17.03-1.44
		C22.86,432.5,25.15,432.25,27.03,433.88z"/>
	<path class="st24" d="M27.03,3.2c0,8.26-0.01,16.51,0,24.77c0,2.66-0.17,5.26-2.2,7.31c-2.63-5.01-5.27-10.02-7.9-15.04
		c0.76-3.71,0.57-7.47,0.67-11.22c0.05-2.09-0.25-4.29,1.4-6.03C21.68,2.65,24.37,2.35,27.03,3.2z"/>
	<path class="st23" d="M27.03,3.2c-2.66-0.01-5.33-0.01-7.99-0.02c-1.02,0.72-1.74,0.69-1.88-0.77c6.32-0.07,12.63-0.19,18.95-0.19
		c46.59,0.01,93.19,0.04,139.78,0.06c1.62,0,3.23,0,6.04,0c-4.37,3.62-6.71,7.58-9.7,11.03c-1.16-0.68-1.2-1.81-1.28-2.98
		c-0.52-7.12-0.53-7.12-7.59-7.12c-1.8,0-3.6,0.02-5.4,0.03c-2.66,0-5.33,0-7.99,0c-2,0-4,0-6,0c-1.67,0-3.33,0-5,0c-2,0-4,0-6,0
		c-2.67,0-5.33,0-8,0c-2.67,0-5.33,0-8,0c-2.03,1.67-4.44,1.38-6.81,1.36c-1.75,0.05-3.5,0.07-5.26,0
		c-2.34,0.09-4.67,0.06-7.01,0.01c-2.95,0.1-5.9,0.09-8.85,0.01c-2.68,0.09-5.37,0.09-8.05,0c-2.43,0.02-4.92,0.33-6.99-1.4
		c-2.33,0-4.66,0-7-0.01c-2,0-4,0-6,0c-2,0-4,0-6-0.01c-2,0-4,0-6-0.01c-2.33,0-4.66,0-7,0c-2.66,0-5.33-0.01-7.99-0.01
		C31.69,3.2,29.36,3.2,27.03,3.2z"/>
	<path class="st25" d="M21.03,433.89c-5.81,0.02-11.63,0.03-17.44,0.05c6.42-6.05,10.69-13.65,15.25-21.05
		c1.91-0.9,3.06,0.24,3.19,1.79C22.57,421.11,23.98,427.63,21.03,433.89z"/>
	<path class="st26" d="M21.03,433.89c0-5.6,0.02-11.2-0.01-16.81c-0.01-1.73,0.52-3.82-2.18-4.2c2.09-3.97,4.18-7.94,6.27-11.92
		c2.76,0.56,1.88,2.79,1.89,4.44c0.07,9.49,0.03,18.99,0.03,28.48C25.03,433.89,23.03,433.89,21.03,433.89z"/>
	<path class="st27" d="M17.15,2.41c0.63,0.26,1.25,0.51,1.88,0.77c0,4.15-0.03,8.31,0,12.46c0.01,1.89-0.01,3.71-2.12,4.6
		C13.09,14.19,9.58,7.9,3.45,2.41C8.69,2.41,12.92,2.41,17.15,2.41z"/>
	<path class="st0" d="M63.18,186.12c1.67,2.67,0.55,5.58,0.73,8.38C62.91,191.77,63.08,188.94,63.18,186.12z"/>
	<path class="st0" d="M63.91,242.58c-0.2,2.82,0.95,5.76-0.74,8.45C63.09,248.18,62.87,245.32,63.91,242.58z"/>
	<path class="st28" d="M74,3.23c2.33,0,4.66,0,7,0c1.36,1.45,1.51,3.27,1.59,5.12c0.07,1.66,0.05,3.33,0.05,4.99
		c0,136.8,0.01,273.61-0.04,410.41c0,3.41,0.86,7.05-1.61,10.1c-2.33,0-4.66,0-7,0C74,290.32,74,146.78,74,3.23z"/>
	<path class="st29" d="M109.98,3.24c2.33,0,4.66,0,6.99,0.01c0,143.54,0,287.07,0,430.61c-2.33,0-4.66,0.01-6.99,0.01
		c-2-2.22-1.6-4.99-1.61-7.61c-0.05-14.98-0.02-29.96-0.02-44.93c0-122.65-0.01-245.31,0.04-367.96
		C108.38,9.94,107.54,6.31,109.98,3.24z"/>
	<path class="st30" d="M88.99,3.24c3,0,6,0,8.99,0.01c1.37,1.45,1.51,3.27,1.59,5.12c0.07,1.66,0.05,3.33,0.05,4.99
		c0,136.8,0.01,273.6-0.04,410.4c0,3.41,0.87,7.05-1.61,10.1c-3,0-6,0-8.99,0.01c-2-2.22-1.6-4.99-1.61-7.61
		c-0.05-15.31-0.02-30.62-0.02-45.93c0-122.32-0.01-244.65,0.04-366.97C87.39,9.94,86.56,6.3,88.99,3.24z"/>
	<path class="st31" d="M88.99,3.24c0,143.54,0,287.08,0,430.62c-2.67,0-5.33,0-8,0c0-143.54,0-287.09,0-430.63
		C83.66,3.24,86.33,3.24,88.99,3.24z"/>
	<path class="st32" d="M97.98,433.86c0-143.54,0-287.07,0-430.61c2.33,0,4.66,0,7,0c1.36,1.45,1.51,3.27,1.59,5.12
		c0.07,1.66,0.05,3.33,0.05,4.99c0,136.8,0.01,273.61-0.04,410.41c0,3.41,0.86,7.05-1.61,10.1
		C102.65,433.86,100.32,433.86,97.98,433.86z"/>
	<path class="st33" d="M104.98,433.86c0-143.54,0-287.08,0-430.62c1.67,0,3.33,0,5,0c0,143.54,0,287.08,0,430.62
		C108.31,433.86,106.65,433.86,104.98,433.86z"/>
</g>
</svg>
