<?xml version="1.0" encoding="utf-8"?>
<!-- Generator: Adobe Illustrator 25.2.0, SVG Export Plug-In . SVG Version: 6.00 Build 0)  -->
<svg version="1.1" id="Layer_1" xmlns="http://www.w3.org/2000/svg" xmlns:xlink="http://www.w3.org/1999/xlink" x="0px" y="0px"
	 viewBox="0 0 144 432" style="enable-background:new 0 0 144 432;" xml:space="preserve">
<style type="text/css">
	.st0{fill:#93DAFE;}
	.st1{fill:#8DD1FE;}
	.st2{fill:#98E4FE;}
	.st3{fill:#8ACBFE;}
	.st4{fill:#90D7FE;}
	.st5{fill:#9EEDFE;}
	.st6{fill:#8FD4FE;}
	.st7{fill:#87C7FE;}
	.st8{fill:#84C2FE;}
	.st9{fill:#81BEFE;}
	.st10{fill:#9BE9FE;}
	.st11{fill:#94DEFE;}
	.st12{fill:#96E0FE;}
	.st13{fill:#9AE6FE;}
	.st14{fill:#86C5FE;}
	.st15{fill:#8BCEFE;}
	.st16{fill:#7FBAFE;}
	.st17{fill:#A0F0FE;}
	.st18{fill:#A3F6FE;}
	.st19{fill:#A1F2FE;}
	.st20{fill:#A5F9FE;}
	.st21{fill:#7CB4FE;}
	.st22{fill:#7DB7FE;}
</style>
<g>
	<path class="st0" d="M60.82,12c2.53-3.31,5.32-6.33,9.07-8.3c1.68,1.2,1.91,3.03,2.07,4.87c0.11,1.33,0.07,2.66,0.07,4
		c0.01,136.08,0.01,272.15,0,408.23c0,1.83,0.2,3.69-0.23,5.48c-0.4,1.68-0.41,3.85-3.05,3.77c-3.3-1.61-5.77-4.16-7.96-7.03
		c0.49-2.98,0.2-5.98,0.21-8.97c0.06-133.36-0.03-266.71,0.06-400.07C61.04,13.31,60.96,12.65,60.82,12z"/>
	<path class="st1" d="M82.05,9.92c3.02,2.9,5.34,6.31,7.28,9.99c0.88,5.78,0.64,11.61,0.64,17.43c0.02,122.9-0.06,245.8,0.07,368.7
		c0,3.04-0.65,5.94-1.06,8.89c-1.81,3.45-4,6.63-6.87,9.3c-2.23-1.13-2.67-3.25-2.98-5.43c-0.21-1.49-0.15-2.99-0.15-4.49
		c-0.01-131.48-0.02-262.96,0.03-394.44C79.02,16.32,78.29,12.4,82.05,9.92z"/>
	<path class="st2" d="M50.92,410.98c-2.74-3.41-5.04-7.11-7.05-10.99c0.91-2.62,0.09-5.28,0.1-7.91
		c0.06-115.36,0.06-230.73,0-346.09c0-3.65,0.71-7.27,0.32-10.92c1.81-3.6,3.83-7.06,6.47-10.13c3-0.13,3.35,2.24,3.92,4.27
		c0.54,1.94,0.35,3.97,0.35,5.97c0.01,121.59,0.01,243.17,0,364.76c0,2.16,0.18,4.36-0.39,6.46
		C54.08,408.43,53.83,410.82,50.92,410.98z"/>
	<path class="st3" d="M94.36,27.92c2.26,3.17,4.28,6.48,5.63,10.15c1.02,4.92,1.04,9.9,1.04,14.9
		c-0.03,100.08,0.01,200.16-0.06,300.25c-0.01,14.29,0.7,28.59-0.63,42.86c-2.03,4.49-4.38,8.78-7.38,12.7
		c-2.28-1.89-2.44-4.63-2.79-7.24c-0.28-2.14-0.14-4.32-0.14-6.48c0-118.31,0-236.63,0-354.94c0-2.49-0.29-5.04,0.34-7.46
		C90.92,30.54,91.04,27.81,94.36,27.92z"/>
	<path class="st4" d="M68.74,430.05c1.61-1.2,1.26-2.97,1.26-4.59c0-140.09-0.02-280.17-0.03-420.26c0-0.5-0.05-1-0.08-1.5
		C72,1.74,74.08,1.35,76.1,3.82c1.72,2.81,1.94,5.9,1.94,9.12c-0.02,136.85-0.04,273.7-0.02,410.55c0,2.15,0.26,4.36-1.07,6.29
		C74.32,432.99,71.57,432.76,68.74,430.05z"/>
	<path class="st5" d="M32.88,379.01c-2.6-5.19-4.87-10.52-6.62-16.06c0.77-3.66-0.29-7.26-0.29-10.91
		c0.08-89.36,0.08-178.71,0-268.07c0-3.65,1.07-7.26,0.28-10.91c1.78-5.53,3.98-10.89,6.63-16.07c3.01-0.18,3.42,2.12,3.9,4.22
		c0.44,1.96,0.26,3.98,0.26,5.97c0.01,100.55,0.01,201.09,0,301.64c0,1.99,0.19,4.02-0.26,5.97C36.31,376.9,35.9,379.2,32.88,379.01
		z"/>
	<path class="st6" d="M76.96,429.78c-0.58-2.25-0.99-4.5-0.99-6.87c0.04-138.37,0.03-276.73,0.04-415.1c0-1.33,0.06-2.66,0.09-3.99
		c2.6,1.44,4.44,3.61,5.95,6.1c-0.84,2.72-1.08,5.5-1.08,8.36c0.03,132.37,0.03,264.74,0,397.11c0,3.02,0.19,5.97,1.16,8.84
		C80.88,426.53,79.19,428.4,76.96,429.78z"/>
	<path class="st7" d="M100.34,396.08c-1.82-1.32-1.33-3.28-1.33-5.05c-0.02-115.88-0.02-231.76-0.03-347.64
		c0-1.85,0.05-3.66,1.01-5.32c2.47,3.75,4.56,7.7,6.01,11.96c0.9,3.56,0.99,7.21,0.99,10.84c0.01,104.4,0.01,208.81,0,313.21
		c0,3.64-0.06,7.28-1.02,10.83C104.62,388.9,102.6,392.55,100.34,396.08z"/>
	<path class="st8" d="M111,61.01c3.12,5.46,5.2,11.34,6.91,17.37c1.31,7.09,1.09,14.25,1.08,21.4c0,74.61,0.02,149.22-0.02,223.83
		c-0.01,11.14,0.6,22.3-0.97,33.4c-1.74,5.91-4,11.6-7,16.99c-2.19-1.18-2.63-3.29-2.9-5.48c-0.2-1.66-0.13-3.32-0.13-4.99
		c-0.01-97.35-0.01-194.71,0.03-292.06C108.01,67.77,107.13,63.67,111,61.01z"/>
	<path class="st9" d="M118.01,357.01c-1.17-1.97-1.03-4.15-1.03-6.31c0-88.84,0-177.68,0.01-266.52c0-1.98-0.29-4.02,0.92-5.81
		c3.74,7.46,6.15,15.38,8.18,23.43c1.42,77.39,1.63,154.78-0.11,232.17C124.07,341.91,121.39,349.58,118.01,357.01z"/>
	<path class="st10" d="M32.88,379.01c2.97-1.48,2.12-4.25,2.13-6.63c0.03-56.12,0.03-112.25,0.03-168.37
		c0-46.8,0.01-93.59-0.03-140.39c0-2.38,0.84-5.15-2.12-6.63c1.85-4.44,3.75-8.86,6.38-12.92c2.83-0.89,2.92,1.45,3.42,3.05
		c0.6,1.92,0.35,3.97,0.35,5.96c0.01,109.6,0.01,219.21,0,328.81c0,2.16,0.22,4.36-0.44,6.45c-0.56,1.76-1.14,3.7-3.75,2.67
		C36.31,387.28,34.71,383.09,32.88,379.01z"/>
	<path class="st11" d="M60.82,12c1.59,0.28,2.2,1.3,2.18,2.83c-0.02,1.33,0.02,2.66,0.02,3.99c0,132.46,0.01,264.93-0.07,397.39
		c0,2.32,1.66,5.55-2.17,6.8c-1.85-1.39-3.39-3.06-4.51-5.1c-0.59-70.22-0.16-140.45-0.24-210.67
		c-0.07-62.42-0.09-124.84,0.03-187.26c0-0.67-0.08-1.33-0.21-1.98C57.08,15.66,58.73,13.64,60.82,12z"/>
	<path class="st12" d="M55.84,18c1.29,0.25,2.1,0.96,2.13,2.34c0.03,1.33,0.05,2.66,0.05,3.99c0,129.15,0.01,258.3-0.06,387.44
		c0,2.07,1.36,4.8-1.69,6.14c-1.78-2.31-3.56-4.63-5.35-6.94c1.9-2.15,2.11-4.77,2.11-7.47c-0.01-123.93,0-247.86,0-371.79
		c0-2.52,0.11-5.06-2.27-6.77C52.07,22.35,53.68,19.98,55.84,18z"/>
	<path class="st13" d="M38.84,391.02c3.17-0.78,2.14-3.38,2.15-5.33c0.07-16.47,0.04-32.95,0.04-49.42
		c0-95.35,0.01-190.71-0.06-286.06c0-2.07,1.36-4.8-1.7-6.13c1.38-3.16,2.93-6.23,5.02-9c2.7,1,1.69,3.35,1.7,5.15
		c0.07,19.14,0.04,38.27,0.04,57.41c0,98.67,0.01,197.35-0.07,296.02c0,2.18,1.51,5.21-2.09,6.35
		C42.19,397,40.52,394.01,38.84,391.02z"/>
	<path class="st14" d="M111,61.01c-0.86,2.72-1.04,5.51-1.04,8.36c0.03,98.76,0.03,197.52,0,296.28c0,2.85,0.19,5.64,1.05,8.36
		c-1.13,3.89-2.86,7.5-5.03,10.91c-1.15-4.73-1-9.55-1-14.36c0.01-102.05,0.01-204.11,0-306.16c0-4.82-0.12-9.63,1.02-14.36
		C108.16,53.46,109.9,57.09,111,61.01z"/>
	<path class="st15" d="M94.36,27.92C91.6,30.53,92,33.95,92,37.24C91.99,116.84,92,196.43,92,276.02c0,38.46,0.05,76.93-0.06,115.39
		c-0.02,5.83,0.5,11.59,1.01,17.37c-0.97,2.28-2.24,4.36-3.96,6.15c-1.18-1.97-1-4.16-1-6.32c0-127.55,0-255.09,0.03-382.64
		c0-2.06-0.77-4.4,1.31-6.06C91.36,22.36,93.02,25.04,94.36,27.92z"/>
	<path class="st16" d="M125.98,333.97c-1.18-1.97-1.01-4.15-1.01-6.31c0-73.02,0-146.04,0-219.06c0-2.33-0.16-4.67,1.12-6.79
		c3.12,8.16,5.4,16.55,6.92,25.15c2.13,54.38,0.3,108.79,1.02,163.18c0.08,6-1.14,11.91-0.89,17.9
		C131.55,316.9,129.19,325.55,125.98,333.97z"/>
	<path class="st17" d="M26.25,73.05c2.93,1.13,1.73,3.69,1.73,5.62c0.07,34.79,0.05,69.58,0.05,104.37
		c0,57.93,0.02,115.86-0.06,173.78c0,2.07,1.37,4.81-1.72,6.12c-2.5-4.38-3.36-9.34-4.98-14.03c1.01-3.82-0.32-7.58-0.31-11.39
		c0.09-79.69,0.09-159.39,0-239.08c0-3.81,1.33-7.57,0.31-11.39C22.76,82.33,23.83,77.45,26.25,73.05z"/>
	<path class="st18" d="M16.12,330.95c-2.85-8.81-4.82-17.81-6.04-26.99c0-57.64-0.13-115.28,0.07-172.93
		c1.31-8.82,3.13-17.52,5.96-25.99c2.61,0.15,3.08,2.2,3.58,4.13c0.51,1.95,0.36,3.97,0.36,5.96c0.01,68.57,0.01,137.13,0,205.7
		c0,2,0.14,4.02-0.36,5.97C19.2,328.74,18.71,330.79,16.12,330.95z"/>
	<path class="st19" d="M16.12,330.95c1.92-1.77,1.94-4.09,1.94-6.45c-0.01-71-0.01-142.01,0-213.01c0-2.36-0.01-4.68-1.95-6.44
		c1.07-6.18,3-12.12,5.17-17.98c2.08,1.3,1.76,3.4,1.76,5.38c0,83.7,0,167.4,0,251.11c0,1.98,0.33,4.08-1.76,5.37
		C19.12,343.06,17.22,337.12,16.12,330.95z"/>
	<path class="st20" d="M10.14,131.04c1.39,3.23,1.91,6.62,1.91,10.12c-0.01,51.25-0.01,102.49,0,153.74c0,3.18-0.35,6.26-1.98,9.07
		c-2.36-6.88-3.03-14.13-3.89-21.24c-3.16-25.94-4.74-52.01-4.01-78.16c0.66-23.74,3-47.32,6.95-70.74
		C9.28,132.87,9.79,131.97,10.14,131.04z"/>
	<path class="st21" d="M138.04,150.86c2.76,10.62,3.75,21.53,4.74,32.39c3.03,33.22,1.59,66.3-3.98,99.19
		c-0.11,0.63-0.47,1.21-0.71,1.82c-2.04-0.99-2.62-2.91-3.02-4.89c-0.65-3.26-1.09-6.54-1.09-9.89
		c0.02-34.26,0.03-68.52-0.01-102.78c0-3.69,0.62-7.28,1.14-10.9C135.4,153.8,136.01,151.88,138.04,150.86z"/>
	<path class="st22" d="M138.04,150.86c-1.16,5.35-2.08,10.73-2.08,16.24c0.02,33.81,0.04,67.62-0.02,101.44
		c-0.01,5.37,0.91,10.56,2.15,15.73c-0.87,8.09-2.55,16.01-4.95,23.78c-1.68-1.42-1.15-3.37-1.15-5.13
		c-0.02-56.71-0.02-113.42-0.03-170.14c0-2.01-0.02-4,1.05-5.81C135.44,134.76,137.15,142.72,138.04,150.86z"/>
</g>
</svg>
