<?xml version="1.0" encoding="utf-8"?>
<!-- Generator: Adobe Illustrator 25.2.0, SVG Export Plug-In . SVG Version: 6.00 Build 0)  -->
<svg version="1.1" id="Layer_1" xmlns="http://www.w3.org/2000/svg" xmlns:xlink="http://www.w3.org/1999/xlink" x="0px" y="0px"
	 viewBox="0 0 257.06 254.82" style="enable-background:new 0 0 257.06 254.82;" xml:space="preserve">
<style type="text/css">
	.st0{fill:#FAFDFC;}
</style>
<path class="st0" d="M233.23,245.02c-3.88-0.07-7.1-1.48-9.81-4.19c-16.31-16.34-32.65-32.67-48.97-49
	c-15.32-15.32-30.64-30.65-45.95-45.98c-0.42-0.42-0.64-0.49-1.11-0.02c-21.59,21.62-43.2,43.23-64.8,64.84
	c-10.11,10.11-20.22,20.23-30.32,30.35c-4,4.01-9.71,5.09-15.05,2.81c-4.81-2.05-8.02-7.15-7.85-12.59
	c0.11-3.45,1.36-6.48,3.81-8.94c11.38-11.4,22.78-22.79,34.17-34.19c14.12-14.12,28.25-28.25,42.37-42.37
	c6.22-6.22,12.43-12.46,18.67-18.65c0.58-0.58,0.53-0.8-0.02-1.35c-16.53-16.49-33.03-33.01-49.54-49.52
	C43.67,61.05,28.48,45.89,13.35,30.69c-3.8-3.82-4.97-8.49-3.31-13.62c1.73-5.33,5.58-8.43,11.12-9.15
	c4.29-0.56,8.05,0.83,11.13,3.91c16.35,16.35,32.7,32.71,49.04,49.06c15.36,15.37,30.73,30.73,46.08,46.11
	c0.41,0.41,0.62,0.44,1.05,0.01c10.37-10.4,20.75-20.78,31.13-31.16c12.17-12.17,24.35-24.34,36.52-36.52
	c9.15-9.15,18.31-18.3,27.45-27.47c7.17-7.19,19.11-4.47,22.27,5.17c1.64,5,0.63,9.64-3.09,13.4
	c-12.7,12.81-25.48,25.53-38.24,38.29c-12.82,12.82-25.63,25.64-38.45,38.46c-6.22,6.22-12.43,12.44-18.66,18.64
	c-0.48,0.47-0.48,0.68-0.01,1.16c17.57,17.55,35.12,35.12,52.68,52.68c14.16,14.16,28.33,28.32,42.48,42.49
	c7.2,7.21,4.17,19.34-5.55,22.3C235.75,244.83,234.47,244.98,233.23,245.02z"/>
</svg>
