<?xml version="1.0" encoding="utf-8"?>
<!-- Generator: Adobe Illustrator 25.2.0, SVG Export Plug-In . SVG Version: 6.00 Build 0)  -->
<svg version="1.1" id="Layer_1" xmlns="http://www.w3.org/2000/svg" xmlns:xlink="http://www.w3.org/1999/xlink" x="0px" y="0px"
	 viewBox="0 0 273.49 97.03" style="enable-background:new 0 0 273.49 97.03;" xml:space="preserve">
<style type="text/css">
	.st0{fill:#556F7A;}
	.st1{fill:#788F9B;}
	.st2{fill:#37474F;}
	.st3{fill:#445B65;}
	.st4{fill:#CCCCCB;}
	.st5{fill:#E5E5E5;}
	.st6{fill:#BC3B26;}
	.st7{fill:#D64527;}
</style>
<g>
	<path class="st0" d="M209.48,97.03c-63.31-0.23-126.62-0.44-189.94-0.71C5.9,96.26-0.01,90.29,0,76.77
		c0.01-9.35,0.18-18.7,0.28-28.04c0.85-2.57,3.1-2.23,5.01-2.23c31.35,0.07,62.71,0.19,94.06,0.36c2.01,0.01,4.05,0.09,5.4,1.98
		c1.39,2.68,1.44,5.78,2.77,8.51c4.62,9.49,12.29,14.13,22.71,14.32c9.31,0.17,18.63,0.15,27.95,0.13
		c13.76-0.02,22.16-6.62,25.46-19.9c0.28-1.13,0.49-2.28,1.18-3.26c1.23-1.39,2.92-1.49,4.55-1.4c6.36,0.37,12.8-0.97,19.09,0.9
		c0.37,0.31,0.68,0.69,0.91,1.12c0.88,10.44,0.17,20.9,0.25,31.36C209.65,86.08,209.85,91.56,209.48,97.03z"/>
	<path class="st1" d="M208.28,48.84c-7.67-0.59-15.35-0.57-23.02-0.1c-0.5-0.14-0.91-0.42-1.22-0.83
		c-1.37-4.42-2.14-9.01-5.27-12.81c-5-6.06-11.31-9.32-19.08-9.5c-10.67-0.25-21.36-0.84-32.01,0.25
		c-12.02,1.23-18.91,7.5-21.61,19.41c-0.22,0.98-0.38,1.97-0.78,2.9c-0.23,0.48-0.59,0.8-1.09,0.97c-1.56-1.33-3.45-1.01-5.26-1.02
		c-31.13-0.13-62.27-0.26-93.41-0.37c-1.8-0.01-3.7-0.35-5.25,1c0.04-9.67,0.06-19.34,0.11-29.01C0.47,5.62,6.11-0.05,20.06,0
		c59.6,0.22,119.21,0.46,178.81,0.69c3.66,0.01,7.31-0.04,10.97-0.06c0.23,14.76-0.04,29.53-0.1,44.29
		C209.74,46.34,209.99,48,208.28,48.84z"/>
	<path class="st0" d="M272.78,48.41c0.22,0.22,0.42,0.47,0.6,0.73c-0.21,5.34-0.47,10.69,0.12,16.02
		c-0.87,3.96-0.39,7.97-0.43,11.95c-0.14,14.45-5.86,20.15-20.46,20.13c-9.65-0.01-19.3-0.09-28.96-0.13
		c0.09-15.86-0.41-31.73,0.5-47.59c0.23-0.43,0.55-0.77,0.96-1.04c2.21-0.86,4.53-1.1,6.87-1.09c12.17,0.01,24.33,0.07,36.5,0.14
		C269.95,47.54,271.5,47.37,272.78,48.41z"/>
	<path class="st1" d="M272.78,48.41c-10.68,0.07-21.35,0.14-32.03,0.23c-5.15,0.04-10.3,0.15-15.46,0.22
		c-1.8-0.78-1.49-2.47-1.48-3.87c0.05-14.78-0.09-29.56,0.24-44.33c10.47,0.09,20.94,0.14,31.41,0.27
		c11.4,0.14,17.45,6.25,17.64,17.68c0.08,4.82,0.18,9.64,0.27,14.46C273.16,38.19,272.97,43.3,272.78,48.41z"/>
	<path class="st2" d="M224.65,49.57c0.03,14.96,0.06,29.91,0.11,44.87c0,1.07-0.41,1.92-1.11,2.68c-4.72-0.03-9.44-0.06-14.17-0.09
		c-0.69-0.77-1.05-1.64-1.04-2.71c0.16-14.93,0.31-29.87,0.46-44.8c0.13-0.9,0.65-1.76,1.47-1.76
		C215.2,47.77,220.4,45.06,224.65,49.57z"/>
	<path class="st3" d="M224.65,49.57c-5.25-1.69-10.5-1.72-15.75-0.06c-0.2-0.23-0.41-0.46-0.62-0.68
		c1.03-14.14,0.26-28.3,0.62-42.44c0.05-1.95-0.56-4.04,0.95-5.76c4.73,0.01,9.46,0.02,14.2,0.03c1.68,1.67,0.94,3.79,0.97,5.71
		c0.25,14.16-0.6,28.33,0.27,42.49C225.07,49.09,224.85,49.33,224.65,49.57z"/>
	<path class="st4" d="M104.19,49.11c0.14-0.25,0.29-0.49,0.45-0.72c2.66-1.47,5.41-1.97,8.32-0.74
		c5.98,15.01,6.79,15.55,23.37,15.61c6.47,0.02,12.94,0.07,19.41,0.04c3.66,0.28,7.2,0.31,10.81-0.99
		c6.48-2.34,7.82-8.11,9.84-13.53c2.65-1.42,5.47-0.94,8.27-0.7c0.22,0.2,0.41,0.41,0.59,0.65c-1.9,15.95-11.23,24.25-27.31,24.23
		c-8.99-0.01-17.97-0.07-26.96-0.13C115.51,72.73,106.1,64.39,104.19,49.11z"/>
	<path class="st5" d="M112.42,47.76c-2.59,0.15-5.12,1.15-7.77,0.63c0.63-13.66,9.39-23.01,22.72-23.82
		c11.49-0.7,23.04-0.76,34.51,0.11c13.53,1.03,21.8,9.92,22.8,23.41c-2.4,1.66-4.99,0.92-7.55,0.61c-0.51,0.01-0.9-0.21-1.18-0.63
		c-1.46-5.58-3.59-10.61-9.44-13.11c-3.52-1.5-7.15-0.93-10.75-1.06c-8.29-0.13-16.58-0.11-24.87-0.13
		c-9.11-0.02-13.2,2.81-16.57,11.32C113.89,46.13,113.85,47.44,112.42,47.76z"/>
	<path class="st2" d="M112.42,47.76c2.13-10.78,7.58-15.27,18.73-15.27c8.5,0,16.99,0.14,25.49,0.22c-0.5,1.98-2.31,2.72-3.69,3.84
		c-3.57,2.91-6.34,6.28-6.82,11.07c-0.71,5.66,1.6,9.86,6.19,13.03c1.43,0.99,3.37,1.56,3.58,3.75c-8.27,0.03-16.54,0.16-24.8,0.08
		C119.32,64.35,113.97,59.48,112.42,47.76z"/>
	<path class="st6" d="M155.89,64.4c-6.66-3.54-12.21-7.81-10.88-16.59c4.01-1.55,8.19-0.71,12.27-0.66
		c6.43,0.08,12.89-0.72,19.28,0.61c0.19,0.31,0.37,0.62,0.56,0.93C175.42,60.77,168.51,65.88,155.89,64.4z"/>
	<path class="st7" d="M176.56,47.76c-10.52,1.02-21.04,0.63-31.56,0.05c-0.01-8.02,5.37-11.89,11.62-15.09
		C168.5,31.68,175.9,37.27,176.56,47.76z"/>
</g>
</svg>
