<?xml version="1.0" encoding="utf-8"?>
<!-- Generator: Adobe Illustrator 25.2.0, SVG Export Plug-In . SVG Version: 6.00 Build 0)  -->
<svg version="1.1" id="Layer_1" xmlns="http://www.w3.org/2000/svg" xmlns:xlink="http://www.w3.org/1999/xlink" x="0px" y="0px"
	 viewBox="0 0 504 504" style="enable-background:new 0 0 504 504;" xml:space="preserve">
<style type="text/css">
	.st0{fill:#FDFEFE;}
	.st1{fill:#131526;}
	.st2{fill:#020202;}
	.st3{fill:#F6F6F6;}
	.st4{fill:#F4F3F4;}
	.st5{fill:#F8F7F8;}
	.st6{fill:#F6F5F6;}
	.st7{fill:#EBEBED;}
	.st8{fill:#EBEBEC;}
	.st9{fill:#F9F8F9;}
	.st10{fill:#DFDFE3;}
	.st11{fill:#EAEAEB;}
	.st12{fill:#E7E7E9;}
	.st13{fill:#F1F0F2;}
	.st14{fill:#E4E4E7;}
	.st15{fill:#E9E9EB;}
	.st16{fill:#E3E2E4;}
	.st17{fill:#E2E2E5;}
	.st18{fill:#E1E1E4;}
	.st19{fill:#E4E3E5;}
	.st20{fill:#E8E8E9;}
	.st21{fill:#E1E1E5;}
	.st22{fill:#E2E1E4;}
	.st23{fill:#E2E2E6;}
	.st24{fill:#E2E1E5;}
	.st25{fill:#E9E9EA;}
	.st26{fill:#DDDDE1;}
	.st27{fill:#DCDCE0;}
	.st28{fill:#DCDCDF;}
	.st29{fill:#E0E0E2;}
	.st30{fill:#E8E8EA;}
	.st31{fill:#D6D7DB;}
	.st32{fill:#717280;}
	.st33{fill:#CDCFD8;}
	.st34{fill:#191B29;}
	.st35{fill:#191A29;}
	.st36{fill:#161827;}
	.st37{fill:#1D1E2B;}
	.st38{fill:#32323F;}
	.st39{fill:#20202E;}
	.st40{fill:#282934;}
	.st41{fill:#1F202B;}
	.st42{fill:#21212F;}
	.st43{fill:#1F202D;}
	.st44{fill:#21212E;}
	.st45{fill:#5D5E63;}
</style>
<path class="st0" d="M412.13,503H91.87C41.13,503,0,461.87,0,411.13V90.87C0,40.13,41.13-1,91.87-1h320.25
	C462.87-1,504,40.13,504,90.87v320.25C504,461.87,462.87,503,412.13,503z"/>
<path class="st1" d="M-203.11,855.52c331.75-0.01,663.51-0.02,995.26-0.02c1.5,0,3,0.02,4.5,0.02c0,25.65-0.04,51.3,0.06,76.95
	c0.01,2.41-0.44,3.56-3.02,3.05c-0.48-0.1-1-0.01-1.5-0.01c-330.28,0-660.56-0.01-990.83,0.1c-3.83,0-4.58-0.96-4.56-4.63
	C-203.03,905.83-203.11,880.67-203.11,855.52z"/>
<path class="st2" d="M259.13,212.21c-20.7-20.71-40.72-40.74-60.74-60.78c-2.65-2.65-5.17-5.46-8.01-7.91
	c-2.11-1.82-1.92-2.86,0-4.76c19.08-18.93,38.05-37.95,57.05-56.97c3.67-3.68,7.3-7.39,10.97-11.11c1.24,1.04,0.7,2.2,0.7,3.18
	c0.04,13.92,0.08,27.84-0.02,41.76c-0.02,2.38,0.37,3.24,3.07,3.3c72.39,1.6,132.91,54.04,145.04,125.54
	c12.97,76.44-36.84,151.94-112.11,169.95c-82.4,19.71-163.23-30.36-182.28-112.95c-2.24-9.69-3.33-19.53-3.55-29.49
	c-0.06-2.62,0.73-3.16,3.21-3.13c13.07,0.13,26.15,0.17,39.22-0.02c3.13-0.05,4.03,0.71,4.16,3.9
	c1.08,27.19,11.07,50.77,30.69,69.55c29.56,28.28,64.74,37.38,103.75,24.94c38.91-12.41,62.89-39.87,70.53-80.09
	c11.02-57.99-29.57-113.1-88.21-120.97c-3.47-0.47-7-0.47-10.49-0.87c-2.36-0.26-3.06,0.5-3.03,2.92
	c0.12,13.19,0.06,26.39,0.06,39.58C259.13,208.97,259.13,210.14,259.13,212.21z"/>
<path class="st3" d="M-69.93,909.52c-1.9,0.27-3.95-0.49-6.06-0.93c-1.28-0.27-2.33-0.54-1.76-2.19c0.5-1.43,1.42-1.39,2.72-0.99
	c2.85,0.86,5.71,1.73,8.73,0.4c1.81-0.79,3.25-1.7,3.19-3.91c-0.06-2.02-1.51-2.82-3.13-3.39c-2.02-0.71-4.1-1.27-6.11-2.03
	c-3.25-1.23-5.37-3.31-4.81-7.13c0.55-3.74,3.25-5.17,6.53-5.79c3.29-0.62,6.16,0.83,9,2.2c1.1,0.53,0.92,1.5,0.57,2.53
	c-0.59,1.71-1.45,0.74-2.22,0.29c-2.18-1.26-4.4-2.44-7.02-1.93c-1.68,0.33-3.3,1.09-3.48,3.03c-0.16,1.77,1.21,2.59,2.69,3.12
	c1.4,0.5,2.79,1.02,4.22,1.42c4.3,1.21,7.9,3.17,7.39,8.4C-59.88,906.8-64.09,909.47-69.93,909.52z"/>
<path class="st4" d="M6.74,909.16c-5.58,1.67-6.05-3.19-8.37-5.55c-0.96-0.98-1.07-3.37-2.9-2.76c-1.66,0.55-0.77,2.59-0.93,3.98
	c-0.11,0.98-0.07,1.99-0.06,2.98c0.02,1.29-0.68,1.66-1.86,1.71c-1.28,0.05-1.76-0.51-1.76-1.72c0.01-7.46,0-14.93-0.01-22.39
	c0-1.09,0.16-1.91,1.57-1.91c1.45,0,2.11,0.55,2.09,2.04c-0.05,3.26-0.01,6.53-0.01,10.05c4.49-1.19,5.68-7.5,11.06-5.87
	c-0.03,0.3,0.02,0.64-0.11,0.89c-1.55,3.21-7.76,3.88-5.56,8.89C1.39,902.9,4.22,905.7,6.74,909.16z"/>
<path class="st5" d="M-28.71,899.76c-0.12,5.94-3.62,9.76-8.97,9.76c-5.49,0-9.11-4.14-8.97-10.27c0.14-5.98,3.62-9.76,8.98-9.74
	C-32.12,889.53-28.59,893.57-28.71,899.76z"/>
<path class="st6" d="M-26.26,899.57c-0.03-7.23,5.87-11.98,12.09-9.71c1.02,0.37,2.43,0.61,1.75,2.33c-0.45,1.15-1.18,1.37-2.35,0.9
	c-2.86-1.15-5.34-0.37-6.95,2.13c-1.74,2.71-1.71,5.76-0.04,8.51c1.56,2.56,4.02,3.43,6.89,2.27c1.47-0.6,2.3-0.17,2.57,1.22
	c0.33,1.69-1.24,1.77-2.22,2.07C-20.76,911.15-26.23,906.58-26.26,899.57z"/>
<path class="st7" d="M-171.69,883.33c4.18,7.16,5.47,15.59,9.33,23.67c3.03-8.19,5.9-15.96,8.77-23.74c0.51,0.2,1.02,0.39,1.53,0.59
	c-2.84,8.14-5.52,16.34-8.62,24.38c-0.87,2.25-2.91,2.11-3.83-0.39c-2.91-7.96-5.7-15.97-8.54-23.96
	C-172.6,883.7-172.15,883.51-171.69,883.33z"/>
<path class="st8" d="M-138.21,907.13c-3.1,3.12-6.83,3.2-10.51,1.26c-4.56-2.4-4.99-6.8-4.33-11.26c0.58-3.89,2.73-6.83,6.85-7.56
	c4.93-0.88,10,5.16,8.45,9.8c-0.45,1.36-1.42,1.15-2.34,1.16c-2.5,0.04-5-0.09-7.49,0.06c-1.16,0.07-2.82-0.87-3.41,0.88
	c-0.46,1.36,0.44,2.6,1.25,3.64C-146.52,909.24-142.37,907.43-138.21,907.13z"/>
<path class="st7" d="M-109.14,899.47c0.02-5.8,3.62-9.87,8.81-9.97c5.37-0.11,9.21,4.09,9.21,10.09c0,5.79-3.62,9.88-8.82,9.95
	C-105.44,909.61-109.17,905.53-109.14,899.47z"/>
<path class="st9" d="M-53.99,883.68c-0.01-0.01,0.77,0.38,0.74,0.45c-1.86,4.79,3.51,4.69,4.82,7.27c0.36,0.71-0.66,1.01-1.31,1.05
	c-1.76,0.1-4-0.36-3.34,2.63c0.83,3.73-2.33,8.5,2.85,11.11c0.87,0.44,2.62,0.09,1.6,2.08c-0.7,1.37-1.72,1.4-2.91,0.98
	c-2.5-0.87-4.56-2.35-4.64-5.2c-0.18-6.13-0.13-12.27-0.18-18.41C-56.37,884.35-56.2,883.26-53.99,883.68z"/>
<path class="st10" d="M-119.82,907.47c-4.71,3.03-9.56,2.64-12.48-0.59c-3.36-3.71-3.53-10.32-0.37-14.24
	c2.88-3.57,7.02-4.13,12.36-1.37c-3.2,1.22-6.41-0.94-9.1,1.01c-2.9,2.1-3.66,5.08-3.37,8.31
	C-132.26,906.28-129.62,907.68-119.82,907.47z"/>
<path class="st11" d="M658.67,908.43c0-2.85-0.85-6.11,0.27-8.43c0.89-1.87,4.34-1.43,6.77-1.21c0.77,0.07,0.88,1.6,1.92,0.95
	c1.77-1.09,3.73-2.35,5.11,0.11c1.54,2.74,1.34,5.74-0.07,9.48c-1.5-2.58-0.85-4.56-1.01-6.39c-0.11-1.17,0.03-2.48-1.69-2.43
	c-1.41,0.04-1.91,1.08-2.23,2.28c-0.49,1.84,0.64,3.94-1.04,5.94c-1.73-1.5-0.84-3.39-1.04-4.98c-0.17-1.42,0.35-3.23-1.96-3.28
	c-2.12-0.05-2.79,1.34-3.05,3.18C660.43,905.24,661.24,906.97,658.67,908.43z"/>
<path class="st12" d="M693.86,899.55c-0.61-2.12,0.04-3.77,1.88-4.68c1.37-0.68,2.92-0.6,4.22,0.42c1.64,1.29,2.2,2.84,1.05,4.76
	c-0.69,1.15-0.22,2.07,0.32,3.2c0.94,1.96-0.02,3.54-1.75,4.59c-1.9,1.15-3.79,1.03-5.49-0.45c-1.56-1.36-1.95-3.04-0.89-4.88
	C693.76,901.54,694.81,900.73,693.86,899.55z"/>
<path class="st13" d="M-111.16,909.21c-2.51,0.17-4.26-0.95-4.76-2.85c-1.99-7.54-0.59-15.13-1.1-23.8c3.79,2.68-0.72,8.98,7.15,7
	C-116.33,892.81-116.43,902.88-111.16,909.21z"/>
<path class="st14" d="M728.41,907.89c1.17-2.26,3.09-0.71,4.22-1.87c0.76-0.78,1.39-1.69,1.19-2.59c-0.27-1.24-1.34-0.2-2.05-0.29
	c-2.43-0.29-3.99-1.49-4.13-4.09c-0.12-2.32,1.05-3.88,3.2-4.43c2.49-0.63,4.12,0.74,5.12,2.92c1.47,3.21,0.7,6.2-1.19,8.91
	C733.27,908.6,731.18,909.08,728.41,907.89z"/>
<path class="st15" d="M707.38,899.85c0.29,0.15,0.6,0.46,0.8,0.4c3.33-0.96,5.71,0.2,6.29,3.54c0.45,2.63-1.28,4.47-3.95,4.67
	c-3.64,0.27-5.43-1.97-5.83-5.33c-0.68-5.76,3.43-9.34,9.07-7.7c-0.95,1.87-2.7,0.64-3.88,1.13
	C708.37,897.2,707.58,898.27,707.38,899.85z"/>
<path class="st16" d="M750.04,906.5c2.6,0.14,5.06,0.27,7.52,0.4c-0.01,0.54-0.02,1.09-0.03,1.63c-2.77,0-5.55,0.04-8.32-0.01
	c-2.29-0.04-1.68-1.64-1.23-2.78c0.76-1.93,2.59-2.92,4.11-4.19c1.19-0.99,3.28-1.86,2.15-3.83c-1.16-2.02-3.02-1.44-4.74-0.39
	c-0.33,0.2-0.89,0.03-1.58,0.03c1.02-2.6,2.95-3.09,5.14-2.82c1.77,0.22,3.07,1.33,3.49,3.09c0.55,2.3-1.06,3.62-2.53,5
	C752.75,903.82,750.72,904.19,750.04,906.5z"/>
<path class="st14" d="M759.4,901.04c0.35-7.5,0.35-7.5,7.11-5.83c-0.2,1.52-1.41,1.03-2.29,1.16c-0.91,0.13-2.03-0.38-2.84,1.26
	c3.17,1.22,6.97,2.26,6.18,6.87c-0.32,1.9-1.54,3.39-3.46,3.87c-2.14,0.53-4.08,0.17-5.5-2.6c2.5-0.07,4.91,2.18,6.53-0.62
	c0.64-1.11,0.64-2.19-0.02-3.28C763.56,899.3,761.36,900.93,759.4,901.04z"/>
<path class="st17" d="M591.56,897.04c-2.19-0.29-3.27-0.5-4.35-0.56c-1.07-0.06-2.06,0.34-2.35,1.43c-0.33,1.24,0.82,1.68,1.61,2.21
	c0.4,0.27,0.95,0.3,1.39,0.52c1.77,0.91,3.74,1.73,3.76,4.16c0.02,1.69-1.11,2.87-2.54,3.36c-2.41,0.84-4.69,0.51-6.59-1.57
	c0.56-0.49,0.83-0.9,1.01-0.87c1.99,0.39,4.62,2.18,5.71-0.39c1.11-2.61-2.23-2.62-3.7-3.57c-1.46-0.94-2.87-1.76-2.81-3.72
	c0.06-1.72,1.23-2.82,2.68-3.23C587.37,894.27,589.5,893.97,591.56,897.04z"/>
<path class="st18" d="M722.43,909.41c-0.58-3.39-2.02-4.8-4.86-4.15c-1,0.23-2.42-0.32-1.68-1.5c1.97-3.13,2.84-7.46,6.38-8.97
	c2.18-0.94,1.37,2.1,1.3,3.17C723.33,901.45,725.17,905.13,722.43,909.41z"/>
<path class="st19" d="M522.95,894.89c4.21,1.9,3.24,6.54,5.7,9.54c2.61-2.87,1.67-7.57,5.83-9.61c-1.41,4.04-2.79,8.1-4.25,12.13
	c-0.26,0.71-0.52,1.65-1.64,1.54c-1.06-0.1-1.25-1.05-1.5-1.75C525.66,902.81,524.33,898.85,522.95,894.89z"/>
<path class="st20" d="M630.51,908.78c-4.29-0.65-3.93-4.03-6.14-5.07c-1.69,1.23,0.29,3.58-2.09,5.12c0-4.97,0-9.56,0-14.56
	c2.6,2.03,0.55,5.03,1.7,7.06c2.5,0.58,2.26-3.42,5.26-2.47C625.46,902.11,627.52,905.15,630.51,908.78z"/>
<path class="st20" d="M-79.6,890.58c-3.68,1.86-7.28,3.06-6.71,8.01c0.41,3.54,0.66,7.3-0.37,10.84c-0.49,0-0.98,0-1.48,0
	c0-6.25-0.01-12.5,0.03-18.75c0-0.36,0.47-0.72,0.73-1.09C-85.52,893.81-82.47,888.32-79.6,890.58z"/>
<path class="st21" d="M604.51,898.43c3,0.34,5.03,1.9,5.09,4.96c0.06,3.02-1.78,5.02-4.83,5.09c-3.04,0.07-4.95-1.77-5.05-4.85
	C599.62,900.5,601.52,898.9,604.51,898.43z"/>
<path class="st22" d="M568.73,898.42c2.99,0.48,4.96,2.12,4.86,5.18c-0.1,2.98-1.94,4.97-5.04,4.88c-3.03-0.09-4.87-1.98-4.83-5.06
	C563.77,900.3,565.75,898.8,568.73,898.42z"/>
<path class="st23" d="M651.66,908.61c-2.99-0.44-4.94-1.99-4.95-5.08c-0.01-3.08,1.81-4.96,4.89-4.97c3.08-0.01,4.94,1.9,4.98,4.93
	C656.61,906.55,654.61,908.13,651.66,908.61z"/>
<path class="st24" d="M544.97,906.14c-2.72,2.93-4.8,2.87-6.97,1.5c-2.07-1.3-2.68-3.33-2.2-5.6c0.41-1.94,1.74-3.18,3.73-3.5
	c2.49-0.41,4.55,0.68,4.93,3.04c0.52,3.31-2.37,1.53-3.76,1.94c-0.88,0.25-1.85,0.18-2.91,0.27
	C538.64,907.74,541.48,906.42,544.97,906.14z"/>
<path class="st25" d="M683.68,897.98c0.84-0.93,1.53-1.87,2.39-2.62c1.75-1.51,2.6-1.03,2.57,1.27c-0.04,2.16,0.01,4.33,0,6.49
	c-0.01,1.79-0.44,3.73,1.8,5.05c-1.82,0-3.63,0-5.46,0C687.82,903.67,687.27,898.57,683.68,897.98z"/>
<path class="st25" d="M745.83,907.99c-2.13,0.81-3.92,0.6-6.28,0.28c3.19-2.98,2.04-6.54,1.89-9.87c-0.04-0.96-1.71,0.83-2.47-0.35
	c0.1-1.24,1.21-1.79,1.95-2.59c0.55-0.59,1.22-1.23,2.14-0.72c0.94,0.51,0.43,1.46,0.55,2.21
	C744.25,900.66,741.9,904.86,745.83,907.99z"/>
<path class="st26" d="M556.29,900.43c-3.9,0.34-7.48-1.17-7.44,3.04c0.05,4.59,3.9,2.62,7.2,3.07c-2.85,2.64-5.32,2.61-7.6,0.74
	c-2.16-1.76-2.62-4.28-0.84-6.59C549.73,897.94,552.31,897.76,556.29,900.43z"/>
<path class="st27" d="M621.3,900.31c-3.82,0.54-7.5-1.14-7.47,3.15c0.03,4.68,3.98,2.59,7.21,3.18c-2.96,2.5-5.45,2.58-7.77,0.52
	c-2.15-1.9-2.37-4.43-0.51-6.69C614.86,897.91,617.36,897.88,621.3,900.31z"/>
<path class="st26" d="M645.43,900.27c-2.59,0.88-6.72-1.31-6.61,3.26c0.12,4.6,4.02,2.47,6.88,3.03c-2.53,2.84-5.09,2.53-7.34,0.66
	c-2.36-1.98-2.52-4.76-0.43-7.01C640.06,897.94,642.65,897.56,645.43,900.27z"/>
<path class="st28" d="M562.35,908.12c-2.81,0.68-4.47-0.4-4.43-2.04c0.06-2.82-1.74-5.64-0.1-8.42c0.56-0.95,1.76-0.82,1.7,0.14
	c-0.09,1.32,3.07,0.71,1.29,2.72C558.4,903.25,559.54,905.7,562.35,908.12z"/>
<path class="st29" d="M598.46,908.18c-3.15,0.53-4.4-0.52-4.78-2.87c-0.28-1.74,0.5-3.59-0.76-5.3c-0.28-0.38,0.5-1.99,1.19-2.54
	c1.24-0.97,1.42,0.75,2.13,1.21c1.16,0.74,1.32,0.78,0.1,2.19C594.38,903.13,595.62,905.94,598.46,908.18z"/>
<path class="st30" d="M575.67,908.43c0-2.53-0.01-5.07,0-7.6c0.02-5.21,4.22,1.34,5.14-2.19c-3.78,2.57-3.07,6.52-3.31,10.07
	C576.89,908.61,576.28,908.52,575.67,908.43z"/>
<path class="st31" d="M681.69,894.87c-1.68,4.83-2.68,9.9-5.04,14.5c-0.41-0.13-0.82-0.26-1.23-0.4c1.59-4.88,3.17-9.75,4.76-14.63
	C680.68,894.52,681.18,894.69,681.69,894.87z"/>
<path class="st32" d="M10.42,891.31c-3.37-1.77-3.77-4.29-2-7.29C8.84,886.51,8.25,889.27,10.42,891.31z"/>
<path class="st33" d="M12.21,883.43c0.74,0.27,1.86,0.3,0.65,1.03c-1.48,0.9-1.6,1.49,0.2,1.98c1.15,0.31,1.09,1.29,0.58,1.81
	c-0.38,0.38-1.46-1.15-2.17,0.5c-0.19,0.44-0.76-1.14-0.64-1.66C11.13,885.83,9.76,883.69,12.21,883.43z"/>
<path class="st34" d="M-32.09,899.56c-0.31,3.59-1.4,6.88-5.62,6.83c-4.18-0.05-5.44-3.27-5.4-6.94c0.04-3.64,1.24-6.87,5.49-6.83
	C-33.39,892.66-32.38,895.96-32.09,899.56z"/>
<path class="st35" d="M-145.42,899.29c-1.97-1.65-5.48,1.31-5.43-2.31c0.04-2.95,1.94-5.7,5.8-5.55c3.31,0.13,4.99,2.23,4.94,5.12
	C-140.2,901.31-144.3,896.76-145.42,899.29z"/>
<path class="st36" d="M-100,907.63c-4.27,0.08-6.95-2.81-7.12-7.69c-0.18-5.04,2.56-8.46,6.81-8.51c4.23-0.05,6.97,2.91,7.14,7.71
	C-92.98,904.22-95.67,907.55-100,907.63z"/>
<path class="st37" d="M696.5,901.87c1.37,0.72,3.13,0.93,3.07,2.83c-0.04,1.4-1.15,1.89-2.4,1.85c-1.5-0.05-2.44-0.84-2.44-2.42
	C694.73,902.9,695.24,902.02,696.5,901.87z"/>
<path class="st38" d="M697.36,896.44c1.52,0.1,2.34,0.74,2.27,2.16c-0.05,1.07-0.51,2.03-1.73,1.84c-1.15-0.19-2.12-0.88-2.2-2.25
	C695.62,896.89,696.45,896.52,697.36,896.44z"/>
<path class="st39" d="M732.1,896.46c1.65,0.32,2.44,1.55,2.42,3.1c-0.02,1.34-1.21,1.93-2.42,1.87c-1.81-0.08-2.52-1.28-2.39-2.99
	C729.81,897.02,730.75,896.54,732.1,896.46z"/>
<path class="st40" d="M709.83,906.6c-1.82-0.17-3-1.14-3.07-2.78c-0.09-2,1.58-2.36,3.12-2.24c1.64,0.13,2.84,1.1,2.67,2.91
	C712.4,906.04,711.27,906.68,709.83,906.6z"/>
<path class="st41" d="M721.25,898.45c-0.02,2.22,2.11,6.07-3.29,4.83C718.31,901.26,719.82,899.95,721.25,898.45z"/>
<path class="st42" d="M604.91,900.39c2.04,0.26,2.85,1.62,2.69,3.47c-0.14,1.62-1.03,2.81-2.9,2.76c-2.06-0.06-3-1.23-2.96-3.2
	C601.77,901.39,602.89,900.42,604.91,900.39z"/>
<path class="st43" d="M571.68,903.17c-0.12,1.9-0.74,3.3-2.78,3.45c-2,0.14-3.05-0.95-3.15-2.87c-0.09-1.84,0.61-3.19,2.67-3.35
	C570.46,900.24,571.29,901.5,571.68,903.17z"/>
<path class="st44" d="M651.34,900.4c2.13-0.07,3.2,1.12,3.25,3c0.05,1.86-0.86,3.18-2.97,3.21c-1.85,0.03-2.74-1.05-2.88-2.74
	C648.57,901.97,649.3,900.63,651.34,900.4z"/>
<path class="st45" d="M542.94,901.71c-2.01,0.97-3.39,0.61-5.77,0.39C539.36,899.89,540.74,899.42,542.94,901.71z"/>
</svg>
