<?xml version="1.0" encoding="utf-8"?>
<!-- Generator: Adobe Illustrator 25.2.0, SVG Export Plug-In . SVG Version: 6.00 Build 0)  -->
<svg version="1.1" id="Layer_1" xmlns="http://www.w3.org/2000/svg" xmlns:xlink="http://www.w3.org/1999/xlink" x="0px" y="0px"
	 viewBox="0 0 203.86 60" style="enable-background:new 0 0 203.86 60;" xml:space="preserve">
<style type="text/css">
	.st0{fill:url(#SVGID_1_);stroke:#000000;stroke-miterlimit:10;}
	.st1{fill:#020202;}
	.st2{fill:none;}
	.st3{font-family:'Verdana';}
	.st4{font-size:42px;}
</style>
<linearGradient id="SVGID_1_" gradientUnits="userSpaceOnUse" x1="102.0299" y1="23.4852" x2="102.0299" y2="81.0447">
	<stop  offset="0" style="stop-color:#FFFFFF"/>
	<stop  offset="0.2482" style="stop-color:#C4C4C4"/>
	<stop  offset="0.8174" style="stop-color:#313131"/>
	<stop  offset="1" style="stop-color:#000000"/>
</linearGradient>
<path class="st0" d="M194.43,60H9.63c-5.21,0-9.43-4.22-9.43-9.43V9.43C0.2,4.22,4.42,0,9.63,0h184.8c5.21,0,9.43,4.22,9.43,9.43
	v41.14C203.86,55.78,199.64,60,194.43,60z"/>
<g>
	<path class="st1" d="M40.96,38.37c0.55,0.6,1.07,1.19,1.62,1.74c2.34,2.33,2.39,2.39-0.43,4.32c-6.21,4.23-12.89,5.03-19.74,1.95
		c-6.92-3.11-10.81-8.71-11.67-16.26c-0.17-1.49-0.57-1.88-1.94-1.74c-1.07,0.11-2.15,0.02-3.61,0.02c2.72-3.53,5.21-6.75,7.68-9.98
		c0.39-0.51,0.65-0.48,1.03,0.01c2.47,3.23,4.95,6.44,7.68,9.97c-1.54,0-2.69,0.09-3.83-0.02c-1.47-0.14-1.75,0.45-1.53,1.79
		c1.9,11.41,14.76,16.29,23.74,8.98C40.26,38.92,40.57,38.68,40.96,38.37z"/>
	<path class="st1" d="M39.55,27.98c1.69,0,2.91-0.07,4.12,0.02c1.2,0.09,1.45-0.42,1.27-1.48c-0.86-5.32-3.59-9.32-8.55-11.5
		c-5.02-2.21-9.94-1.69-14.33,1.61c-1.45,1.09-2.14,1.13-3.37-0.2c-2.42-2.61-2.51-2.53,0.49-4.6c12.62-8.73,30-0.58,31.24,14.7
		c0.1,1.21,0.44,1.57,1.59,1.48c1.15-0.09,2.31-0.02,3.88-0.02c-1.11,1.47-2.01,2.67-2.93,3.87c-1.5,1.96-3.01,3.91-4.51,5.87
		c-0.37,0.48-0.66,0.99-1.28,0.16C44.75,34.69,42.28,31.52,39.55,27.98z"/>
</g>
<rect x="69.26" y="11.24" class="st2" width="122.17" height="43.9"/>
<text transform="matrix(1 0 0 1 69.2599 43.1618)" class="st3 st4">Reset</text>
</svg>
