<svg width="187" height="68" viewBox="0 0 187 68" fill="none" xmlns="http://www.w3.org/2000/svg">
<g filter="url(#filter0_d)">
<rect width="179" height="60" rx="12" fill="url(#paint0_linear)"/>
</g>
<path d="M65.4031 30.04V19.96H73.0711C77.0671 19.96 79.4071 21.796 79.4071 24.892V24.964C79.4071 28.096 76.8151 30.04 73.0711 30.04H65.4031ZM61.9471 43H65.4031V33.136H72.3871L79.6231 43H83.7991L76.0591 32.524C80.0551 31.696 82.8991 29.104 82.8991 24.784V24.712C82.8991 22.624 82.1431 20.716 80.8111 19.42C79.1911 17.764 76.5991 16.792 73.3231 16.792H61.9471V43ZM97.0831 43.432C100.755 43.432 103.203 41.992 105.111 39.796L103.059 37.96C101.475 39.58 99.7111 40.588 97.1551 40.588C93.9151 40.588 91.1431 38.392 90.7111 34.504H105.795C105.831 34.108 105.867 33.82 105.867 33.46C105.867 27.772 102.591 23.092 96.6871 23.092C91.2511 23.092 87.2911 27.628 87.2911 33.244V33.316C87.2911 39.364 91.6831 43.432 97.0831 43.432ZM90.6751 32.092C91.0711 28.528 93.4111 25.936 96.6511 25.936C100.215 25.936 102.159 28.744 102.447 32.092H90.6751ZM117.529 43.36C121.489 43.36 124.585 41.272 124.585 37.42V37.348C124.585 33.856 121.345 32.668 118.357 31.768C115.873 31.012 113.533 30.328 113.533 28.6V28.528C113.533 27.052 114.865 25.972 116.989 25.972C118.789 25.972 120.841 26.692 122.677 27.844L124.153 25.36C122.137 24.028 119.473 23.164 117.097 23.164C113.245 23.164 110.365 25.396 110.365 28.888V28.96C110.365 32.56 113.713 33.64 116.701 34.504C119.185 35.224 121.381 35.908 121.381 37.744V37.816C121.381 39.508 119.869 40.588 117.673 40.588C115.477 40.588 113.173 39.724 111.049 38.14L109.393 40.516C111.697 42.316 114.757 43.36 117.529 43.36ZM138.638 43.432C142.31 43.432 144.758 41.992 146.666 39.796L144.614 37.96C143.03 39.58 141.266 40.588 138.71 40.588C135.47 40.588 132.698 38.392 132.266 34.504H147.35C147.386 34.108 147.422 33.82 147.422 33.46C147.422 27.772 144.146 23.092 138.242 23.092C132.806 23.092 128.846 27.628 128.846 33.244V33.316C128.846 39.364 133.238 43.432 138.638 43.432ZM132.23 32.092C132.626 28.528 134.966 25.936 138.206 25.936C141.77 25.936 143.714 28.744 144.002 32.092H132.23ZM159.12 43.324C160.596 43.324 161.712 43.036 162.756 42.46V39.616C161.784 40.084 160.956 40.3 159.948 40.3C158.112 40.3 156.924 39.472 156.924 37.312V26.476H162.828V23.524H156.924V17.8H153.576V23.524H150.948V26.476H153.576V37.78C153.576 41.812 155.952 43.324 159.12 43.324Z" fill="#333333"/>
<path d="M27 15C19.7185 15 13.6502 20.1889 12.2875 27.0703H16.4513C17.7343 22.4439 21.9651 19.043 27 19.043C30.0267 19.043 32.7619 20.2729 34.7417 22.2583L29.9297 27.0703H42V15L37.6055 19.3945C34.8913 16.6795 31.1425 15 27 15ZM12 32.9297V45L16.3945 40.6055C19.1087 43.3205 22.8576 45 27 45C34.2815 45 40.3498 39.8111 41.7125 32.9297H37.5487C36.2658 37.5561 32.0349 40.957 27 40.957C23.9733 40.957 21.2382 39.7272 19.2583 37.7417L24.0703 32.9297H12Z" fill="#333333"/>
<defs>
<filter id="filter0_d" x="0" y="0" width="187" height="68" filterUnits="userSpaceOnUse" color-interpolation-filters="sRGB">
<feFlood flood-opacity="0" result="BackgroundImageFix"/>
<feColorMatrix in="SourceAlpha" type="matrix" values="0 0 0 0 0 0 0 0 0 0 0 0 0 0 0 0 0 0 127 0"/>
<feOffset dx="4" dy="4"/>
<feGaussianBlur stdDeviation="2"/>
<feColorMatrix type="matrix" values="0 0 0 0 0 0 0 0 0 0 0 0 0 0 0 0 0 0 0.25 0"/>
<feBlend mode="normal" in2="BackgroundImageFix" result="effect1_dropShadow"/>
<feBlend mode="normal" in="SourceGraphic" in2="effect1_dropShadow" result="shape"/>
</filter>
<linearGradient id="paint0_linear" x1="89.5" y1="0" x2="89.5" y2="60" gradientUnits="userSpaceOnUse">
<stop stop-color="white"/>
<stop offset="1" stop-color="#D5D4D4"/>
</linearGradient>
</defs>
</svg>
