<svg xmlns="http://www.w3.org/2000/svg" viewBox="0 0 457.92 226.8"><defs><style>.cls-1{fill:#072f3e;}.cls-2{fill:#0e6283;}.cls-2,.cls-9{stroke:#b5daa3;}.cls-2,.cls-4,.cls-5,.cls-6,.cls-7,.cls-9{stroke-miterlimit:10;stroke-width:2px;}.cls-3{fill:#a7d3f1;}.cls-4,.cls-5,.cls-6,.cls-7,.cls-9{fill:none;}.cls-4,.cls-5,.cls-6{stroke:#dee462;}.cls-5{stroke-dasharray:6.22 3.11;}.cls-6{stroke-dasharray:6.11 3.06;}.cls-7{stroke:#a8a4d1;}.cls-8{fill:#f7a6a6;}.cls-10{font-size:12px;fill:#fff;font-family:GothamSSm-Medium, Gotham SSm;font-weight:500;}</style></defs><g id="Layer_2" data-name="Layer 2"><g id="Layer_1-2" data-name="Layer 1"><rect class="cls-1" width="457.92" height="226.8"/><circle class="cls-2" cx="227.48" cy="113.56" r="92.5"/><path class="cls-3" d="M320,113.56l-29.68.33v-.33a29.72,29.72,0,0,1,16.24-26.47Z"/><line class="cls-4" x1="282.11" y1="38.91" x2="283.46" y2="41.59"/><line class="cls-5" x1="284.87" y1="44.36" x2="317.92" y2="109.5"/><line class="cls-4" x1="318.62" y1="110.88" x2="319.98" y2="113.56"/><line class="cls-4" x1="134.98" y1="113.4" x2="137.66" y2="112.04"/><line class="cls-6" x1="140.39" y1="110.66" x2="278.07" y2="40.96"/><line class="cls-4" x1="279.43" y1="40.27" x2="282.11" y2="38.91"/><line class="cls-7" x1="134.98" y1="113.4" x2="319.98" y2="113.71"/><path class="cls-8" d="M150.6,62.26l29.25-5a29.5,29.5,0,0,1-.75,13.37Z"/><line class="cls-9" x1="150.6" y1="62.26" x2="282.11" y2="38.91"/><line class="cls-9" x1="319.98" y1="113.71" x2="150.6" y2="62.26"/><path class="cls-9" d="M227.48,206.06a92.5,92.5,0,1,1,92.5-92.5"/><text class="cls-10" transform="translate(115.85 118.03)">A</text><text class="cls-10" transform="translate(330.79 118.53)">B</text><text class="cls-10" transform="translate(292.57 36.19)">N</text><text class="cls-10" transform="translate(128.18 59.69)">M</text><text class="cls-10" transform="translate(185.44 68.88)">30°</text><text class="cls-10" transform="translate(280.27 93.98)">X</text><text class="cls-10" transform="translate(223.95 107.69)">O</text></g></g></svg>