<svg xmlns="http://www.w3.org/2000/svg" viewBox="0 0 227.2 187"><defs><style>.cls-1{fill:#0e6283;}.cls-1,.cls-7{stroke:#b5daa3;}.cls-1,.cls-3,.cls-4,.cls-6,.cls-7{stroke-miterlimit:10;stroke-width:2px;}.cls-2{fill:#a7d3f1;}.cls-3,.cls-4,.cls-6,.cls-7{fill:none;}.cls-3,.cls-4,.cls-6{stroke:#dee462;}.cls-4{stroke-dasharray:6.22 3.11;}.cls-5{fill:#f7a6a6;}.cls-6{stroke-dasharray:6.11 3.06;}.cls-8{font-size:12px;fill:#fff;font-family:GothamSSm-Medium, Gotham SSm;font-weight:500;}</style></defs><g id="Layer_2" data-name="Layer 2"><g id="Layer_1-2" data-name="Layer 1"><circle class="cls-1" cx="111.63" cy="93.5" r="92.5"/><path class="cls-2" d="M204.13,93.5l-29.68.33V93.5A29.73,29.73,0,0,1,190.69,67Z"/><line class="cls-3" x1="166.26" y1="18.86" x2="167.61" y2="21.53"/><line class="cls-4" x1="169.02" y1="24.31" x2="202.07" y2="89.44"/><line class="cls-3" x1="202.78" y1="90.82" x2="204.13" y2="93.5"/><path class="cls-5" d="M18.94,93.34,50,78a34.64,34.64,0,0,1,3.6,15.38v.11Z"/><line class="cls-3" x1="19.13" y1="93.34" x2="21.81" y2="91.99"/><line class="cls-6" x1="24.54" y1="90.61" x2="162.22" y2="20.9"/><line class="cls-3" x1="163.58" y1="20.21" x2="166.26" y2="18.86"/><line class="cls-7" x1="19.13" y1="93.34" x2="204.13" y2="93.66"/><path class="cls-5" d="M34.75,42.2l29.26-5a30.35,30.35,0,0,1,.43,5,29.62,29.62,0,0,1-1.19,8.32Z"/><line class="cls-7" x1="34.75" y1="42.2" x2="166.26" y2="18.86"/><line class="cls-7" x1="204.13" y1="93.66" x2="34.75" y2="42.2"/><path class="cls-7" d="M111.63,186a92.5,92.5,0,1,1,92.5-92.5"/><text class="cls-8" transform="translate(0 97.97)">A</text><text class="cls-8" transform="translate(214.94 98.47)">B</text><text class="cls-8" transform="translate(176.72 16.13)">N</text><text class="cls-8" transform="translate(12.33 39.64)">M</text><text class="cls-8" transform="translate(69.59 48.83)">30°</text><text class="cls-8" transform="translate(53.8 89.57)">30°</text><text class="cls-8" transform="translate(164.42 73.93)">X</text><text class="cls-8" transform="translate(108.1 87.64)">O</text><polyline class="cls-3" points="173.66 33.57 158.86 41.06 151.37 26.27"/></g></g></svg>